<svg width="36" height="33" viewBox="0 0 36 33" fill="none" xmlns="http://www.w3.org/2000/svg">
<g clip-path="url(#clip0_12_119)">
<path d="M12.6811 25.2841H30.8839C31.4922 25.2841 32.0225 24.785 32.0225 24.1143C32.0225 23.4436 31.4922 22.9444 30.8839 22.9444H12.9462C12.0572 22.9444 11.5113 22.3205 11.3709 21.369L8.81283 4.00858C8.65685 2.80753 8.2201 2.19922 6.62912 2.19922H1.15425C0.530329 2.19922 0 2.74514 0 3.36906C0 4.00858 0.530329 4.5545 1.15425 4.5545H6.42635L8.92202 21.681C9.24954 23.8959 10.4194 25.2841 12.6811 25.2841ZM9.81106 19.7313H30.915C33.1923 19.7313 34.3622 18.3275 34.6898 16.0969L35.9376 7.84567C35.9689 7.64289 36 7.39332 36 7.25294C36 6.50424 35.4385 5.98951 34.5806 5.98951H8.45407L8.46967 8.3448H33.3483L32.2409 15.8162C32.1162 16.7833 31.6014 17.3916 30.6811 17.3916H9.77991L9.81106 19.7313ZM13.9134 32.8647C15.3171 32.8647 16.4402 31.7573 16.4402 30.3379C16.4402 28.934 15.3171 27.811 13.9134 27.811C12.494 27.811 11.3709 28.934 11.3709 30.3379C11.3709 31.7573 12.494 32.8647 13.9134 32.8647ZM28.4974 32.8647C29.9168 32.8647 31.0399 31.7573 31.0399 30.3379C31.0399 28.934 29.9168 27.811 28.4974 27.811C27.0936 27.811 25.9549 28.934 25.9549 30.3379C25.9549 31.7573 27.0936 32.8647 28.4974 32.8647Z" fill="#155343"/>
</g>
<defs>
<clipPath id="clip0_12_119">
<rect width="36" height="32.8648" fill="white"/>
</clipPath>
</defs>
</svg>
