<svg width="24" height="24" viewBox="0 0 24 24" fill="none" xmlns="http://www.w3.org/2000/svg">
<g clip-path="url(#clip0_12_108)">
<path d="M0.391632 23.6086C0.921346 24.1228 1.79916 24.1228 2.31375 23.6086L12 13.9284L21.6862 23.6086C22.2008 24.1228 23.0937 24.1379 23.6083 23.6086C24.123 23.0791 24.123 22.217 23.6083 21.7027L13.9221 12.0075L23.6083 2.32731C24.123 1.81305 24.138 0.935787 23.6083 0.421528C23.0786 -0.107855 22.2008 -0.107855 21.6862 0.421528L12 10.1017L2.31375 0.421528C1.79916 -0.107855 0.90621 -0.12298 0.391632 0.421528C-0.122949 0.950913 -0.122949 1.81305 0.391632 2.32731L10.0779 12.0075L0.391632 21.7027C-0.122949 22.217 -0.138084 23.0943 0.391632 23.6086Z" fill="#155343"/>
</g>
<defs>
<clipPath id="clip0_12_108">
<rect width="24" height="24" fill="white"/>
</clipPath>
</defs>
</svg>
