<svg width="20" height="20" viewBox="0 0 20 20" fill="none" xmlns="http://www.w3.org/2000/svg">
<g clip-path="url(#clip0_809_52)">
<path d="M10 19.9902C15.4706 19.9902 20 15.4532 20 9.9951C20 4.52719 15.4608 0 9.99018 0C4.52941 0 0 4.52719 0 9.9951C0 15.4532 4.53921 19.9902 10 19.9902ZM10 18.3243C5.37254 18.3243 1.67647 14.6203 1.67647 9.9951C1.67647 5.36991 5.36274 1.66585 9.99018 1.66585C14.6176 1.66585 18.3333 5.36991 18.3333 9.9951C18.3333 14.6203 14.6275 18.3243 10 18.3243Z" fill="black"/>
<path d="M6.14708 10.8279H13.8431C14.3922 10.8279 14.7647 10.5339 14.7647 10.0145C14.7647 9.4854 14.4117 9.18164 13.8431 9.18164H6.14708C5.57847 9.18164 5.2157 9.4854 5.2157 10.0145C5.2157 10.5339 5.59805 10.8279 6.14708 10.8279Z" fill="black"/>
</g>
<defs>
<clipPath id="clip0_809_52">
<rect width="20" height="20" fill="white"/>
</clipPath>
</defs>
</svg>
