<svg width="20" height="20" viewBox="0 0 20 20" fill="none" xmlns="http://www.w3.org/2000/svg">
<g clip-path="url(#clip0_809_58)">
<path d="M10 19.9902C15.4706 19.9902 20 15.4532 20 9.9951C20 4.52719 15.4608 0 9.99018 0C4.52941 0 0 4.52719 0 9.9951C0 15.4532 4.53921 19.9902 10 19.9902ZM10 18.3243C5.37254 18.3243 1.67647 14.6203 1.67647 9.9951C1.67647 5.36991 5.36274 1.66585 9.99018 1.66585C14.6176 1.66585 18.3333 5.36991 18.3333 9.9951C18.3333 14.6203 14.6275 18.3243 10 18.3243Z" fill="black"/>
<path d="M5.45099 9.99507C5.45099 10.4752 5.78432 10.7986 6.28433 10.7986H9.16664V13.6893C9.16664 14.1793 9.5 14.5223 9.98038 14.5223C10.4706 14.5223 10.8137 14.1891 10.8137 13.6893V10.7986H13.7059C14.1961 10.7986 14.5392 10.4752 14.5392 9.99507C14.5392 9.50512 14.1961 9.16211 13.7059 9.16211H10.8137V6.28121C10.8137 5.78145 10.4706 5.43848 9.98038 5.43848C9.5 5.43848 9.16664 5.78145 9.16664 6.28121V9.16211H6.28433C5.78432 9.16211 5.45099 9.50512 5.45099 9.99507Z" fill="black"/>
</g>
<defs>
<clipPath id="clip0_809_58">
<rect width="20" height="20" fill="white"/>
</clipPath>
</defs>
</svg>
