<svg width="36" height="36" viewBox="0 0 36 36" fill="none" xmlns="http://www.w3.org/2000/svg">
<g clip-path="url(#clip0_809_63)">
<path d="M18 35.9823C27.8471 35.9823 36 27.8157 36 17.9912C36 8.14893 27.8294 0 17.9823 0C8.15293 0 0 8.14893 0 17.9912C0 27.8157 8.17058 35.9823 18 35.9823ZM18 32.9838C9.67058 32.9838 3.01765 26.3165 3.01765 17.9912C3.01765 9.66584 9.65293 2.99852 17.9823 2.99852C26.3118 2.99852 33 9.66584 33 17.9912C33 26.3165 26.3294 32.9838 18 32.9838Z" fill="#CD0100"/>
<path d="M13.4295 28.3802H22.5529C23.7353 28.3802 24.4588 27.7099 24.5118 26.5282L25.1118 12.5762H26.5058C26.9294 12.5762 27.247 12.2411 27.2647 11.8354C27.2824 11.4121 26.9294 11.077 26.5058 11.077H22.2706V9.64827C22.2706 8.18428 21.3 7.26709 19.747 7.26709H16.1823C14.647 7.26709 13.6941 8.18428 13.6941 9.64827V11.077H9.4412C9.03531 11.077 8.68237 11.4121 8.68237 11.8354C8.68237 12.2411 9.03531 12.5762 9.4412 12.5762H10.8882L11.5059 26.5282C11.5412 27.7099 12.2294 28.3802 13.4295 28.3802ZM14.9471 25.6463C14.5941 25.6463 14.3118 25.3994 14.3118 25.0465L13.9412 14.7458C13.9412 14.3754 14.1706 14.1284 14.5941 14.1284C14.9471 14.1284 15.2294 14.3577 15.2294 14.7458L15.5647 25.0465C15.5647 25.3994 15.3353 25.6463 14.9471 25.6463ZM17.9647 25.6463C17.5765 25.6463 17.3117 25.3994 17.3117 25.0465V14.7458C17.3117 14.3754 17.5588 14.1284 17.9647 14.1284C18.3529 14.1284 18.6176 14.3754 18.6176 14.7458V25.0465C18.6176 25.3994 18.3529 25.6463 17.9647 25.6463ZM20.9647 25.6463C20.5765 25.6463 20.3471 25.3994 20.3471 25.0465L20.6824 14.7458C20.7 14.3577 20.9647 14.1284 21.3353 14.1284C21.7411 14.1284 21.9706 14.3754 21.9706 14.7458L21.6 25.0465C21.6 25.3994 21.3177 25.6463 20.9647 25.6463ZM15.4765 11.077V9.73646C15.4765 9.27786 15.8118 8.97802 16.2882 8.97802H19.6412C20.1177 8.97802 20.4529 9.27786 20.4529 9.73646V11.077H15.4765Z" fill="#CD0100"/>
</g>
<defs>
<clipPath id="clip0_809_63">
<rect width="36" height="36" fill="white"/>
</clipPath>
</defs>
</svg>
